<svg xmlns="http://www.w3.org/2000/svg" width="293.882" height="9.708" viewBox="0 0 293.882 9.708">
  <g id="Group_2441" data-name="Group 2441" transform="translate(-61.87 -176.426)">
    <path id="Path_3974" data-name="Path 3974" d="M68.25,181.293c2.329.011,4.658-.054,6.984-.088.948-.014,1.894-.038,2.84-.061l12.517-.293q7.483-.175,14.967-.372l21.377-.561c1.633-.043,3.268-.072,4.9-.108l12.455-.276,12.457-.275c1.625-.036,3.251-.082,4.877-.107l19.875-.294,12.22-.181c1.594-.024,3.192-.059,4.787-.07q9.606-.065,19.211-.136l18.959-.133c1.668-.011,3.339-.006,5-.009l12.378-.023q9.622-.017,19.245-.035c2.1,0,4.2.007,6.294.01l13.178.022,1.09,0q-14.831.094-29.665.2l-12.387.086c-1.781.012-3.564.015-5.346.037q-8.962.11-17.921.229l-20.714.263c-1.16.015-2.321.046-3.479.072l-11.031.239q-11.186.242-22.375.485c-1.1.024-2.206.061-3.309.1l-10.928.355q-9.788.318-19.575.636c-1.8.059-3.6.142-5.393.213l-12.535.5q-7.966.315-15.932.632-11.086.454-22.168.91l-5.317.218c-3.177.131-6.344.319-9.514.484-.335.017-.621.12-.621.292s.283.284.621.292l3.476.071a.66.66,0,0,0-.227.455c0,.555,1.035,1.105,2.273,1.07,9.06-.266,18.117-.554,27.186-.758l23.617-.529,26.111-.585,8.22-.184c.791-.017,1.583-.041,2.374-.051q21.032-.264,42.063-.519l22.479-.277q4.063-.05,8.121-.082L275,182.83l18.434-.139c5.246-.04,10.494-.057,15.738-.149l13-.231c2.162-.038,4.329-.063,6.489-.127q7.378-.219,14.755-.448l-.011.008a.554.554,0,0,0-.207.742,1.561,1.561,0,0,0,.941.575,3.944,3.944,0,0,0,1.577.1q1.609-.3,3.2-.615l-.067.013.237-.047.274-.054-.1.02,1.7-.337c.594-.116,1.187-.234,1.778-.356.644-.132,1.26-.293,1.88-.448.7-.176,1.13-.561,1.13-.927a.712.712,0,0,0-.311-.542,2.707,2.707,0,0,0-1.364-.494c-.55-.045-1.1-.079-1.65-.112-.12-.007-.244-.01-.37-.01-.374,0-.762.025-1.118.037-.836.028-1.665.086-2.5.115l-2.043.069-5.5.188c-.473.016-.949.029-1.422.044a.934.934,0,0,0,.368-.317.528.528,0,0,0,.145-.3c.02-.073.042-.147.062-.219a.465.465,0,0,0-.1-.274l.144-.03a2.31,2.31,0,0,0,.825-.389.631.631,0,0,0,0-1.093l-.359-.22a3.486,3.486,0,0,0-1.017-.279,12.5,12.5,0,0,0-2.2-.158c-.613,0-1.23.021-1.836.024l-2.645.012c-1.248.006-2.5.014-3.743.018l-9.889.024q-4.652.012-9.3.006-4.228,0-8.454,0c-11.236.023-22.469.031-33.7.086l-25.272.12q-5.649.028-11.3.083l-25.324.252-7.222.072c-1.4.014-2.792.048-4.189.073l-25.028.446-7.639.137c-1.428.025-2.856.07-4.283.105l-24.86.628q-6.42.162-12.829.357l-21.962.652c-6.342.187-12.688.349-19.032.524l-3.016.082c-1.623.045-3.251.075-4.877.109-1.442.03-2.891.049-4.337.031a1.216,1.216,0,0,0-.928-.3c-.932.035-1.863.082-2.793.13a1.23,1.23,0,0,0-.973.347c-.141.243.17.523.705.584.4.045.806.093,1.213.137s.818.054,1.221.071C66.109,181.278,67.181,181.289,68.25,181.293Zm256.333-1.654h4.085a1.51,1.51,0,0,0,.55.376c-.527.017-1.054.033-1.581.043l-2.977.052-13,.23c-1.984.035-3.968.086-5.951.1l-9.3.069-21.251.158q-20.626.157-41.253.307c-9.848.074-19.692.218-29.536.34l-44.5.555c-2.974.037-5.948.126-8.919.193l-25.258.57-24.8.559-2.3.052q3.342-.127,6.684-.248l23.339-.839,8.151-.293c1.4-.05,2.805-.082,4.207-.123l24.27-.691c1.581-.046,3.164-.106,4.746-.134l6.838-.125,25.024-.456,5.506-.1c.483-.008.967-.009,1.45-.014l3.867-.037,25.075-.241c3.852-.037,7.7-.08,11.553-.095q18.643-.07,37.285-.134Q305.589,179.672,324.583,179.639Z" transform="translate(0)" fill="#126fed"/>
  </g>
</svg>
